<svg xmlns="http://www.w3.org/2000/svg" xmlns:svg="http://www.w3.org/2000/svg" id="svg3085" width="256" height="256" version="1.1"><metadata id="metadata3090"/><g id="layer1" transform="translate(0,-796.36218)"><path d="m 193.66365,997.63403 -130.070007,0 0,-130.54372 130.070007,0 0,130.54372 z" style="fill:none;stroke:#231f20;stroke-width:6.875;stroke-linecap:butt;stroke-linejoin:miter;stroke-miterlimit:10;stroke-opacity:1;stroke-dasharray:none" id="path12"/><g id="g14" transform="matrix(1.25,0,0,-1.25,63.594143,867.09031)"><path d="M 0,0 104.056,0" style="fill:none;stroke:#231f20;stroke-width:5.5;stroke-linecap:butt;stroke-linejoin:bevel;stroke-miterlimit:10;stroke-opacity:1;stroke-dasharray:none" id="path16"/></g><g id="g18" transform="matrix(1.25,0,0,-1.25,63.594143,867.09031)"><path d="M 0,0 104.056,-104.435" style="fill:none;stroke:#231f20;stroke-width:5.5;stroke-linecap:butt;stroke-linejoin:bevel;stroke-miterlimit:10;stroke-opacity:1;stroke-dasharray:none" id="path20"/></g><g id="g22" transform="matrix(1.25,0,0,-1.25,128.62839,932.36244)"><path d="M 0,0 -52.027,-52.217" style="fill:none;stroke:#231f20;stroke-width:5.5;stroke-linecap:butt;stroke-linejoin:bevel;stroke-miterlimit:10;stroke-opacity:1;stroke-dasharray:none" id="path24"/></g><g id="g26" transform="matrix(1.25,0,0,-1.25,128.62839,997.63403)"><path d="m 0,0 -52.027,52.217 104.055,0 L 0,104.435 -52.027,52.217" style="fill:none;stroke:#231f20;stroke-width:5.5;stroke-linecap:butt;stroke-linejoin:bevel;stroke-miterlimit:10;stroke-opacity:1;stroke-dasharray:none" id="path28"/></g><g id="g94" transform="matrix(1.25,0,0,-1.25,128.62839,867.09031)"><path d="M 0,0 0,-52.218" style="fill:none;stroke:#231f20;stroke-width:5.5;stroke-linecap:butt;stroke-linejoin:bevel;stroke-miterlimit:10;stroke-opacity:1;stroke-dasharray:none" id="path96"/></g></g></svg>